<svg id="Calque_1" data-name="Calque 1" xmlns="http://www.w3.org/2000/svg" viewBox="0 0 1080 1080"><defs><style>.cls-1{fill:#56dcfc;}</style></defs><title>Bot</title><path class="cls-1" d="M540,0C241.77,0,0,241.77,0,540s241.77,540,540,540,540-241.77,540-540S838.23,0,540,0Zm0,1040C263.86,1040,40,816.14,40,540S263.86,40,540,40s500,223.86,500,500S816.14,1040,540,1040Z"/><path class="cls-1" d="M436.79,527.94c0,68.48-55.52,36-124,36s-124,32.48-124-36a124,124,0,0,1,248,0Z"/><path class="cls-1" d="M891.21,527.94c0,68.48-55.51,36-124,36s-124,32.48-124-36a124,124,0,0,1,248,0Z"/><path class="cls-1" d="M616,632.15c27.22,0,45.16,28.47,33.27,53a121.43,121.43,0,0,1-218.52,0c-11.89-24.48,6.05-53,33.27-53Z"/></svg>