<svg id="Calque_1" data-name="Calque 1" xmlns="http://www.w3.org/2000/svg" viewBox="0 0 1079.5 827.51"><defs><style>.cls-1{fill:none;stroke:#56dcfc;stroke-linecap:round;stroke-linejoin:round;stroke-width:48.5px;}</style></defs><title>Discord</title><path class="cls-1" d="M540,841.34a613.63,613.63,0,0,1-263.77-59.16q-9.72,8.13-19.91,15.73a557.41,557.41,0,0,0,90.25,42.75c-3.93,10.44-16.64,31.83-28,48.92-11.63,17.47-29.39,39.93-29.39,39.93a865.33,865.33,0,0,1-155.86-63.88,870.34,870.34,0,0,1-104.38-65c-9.22-47.94-1.08-158.24-1.08-158.24,1.08-24.14,3.32-46.15,6.09-65.76.79-5.62,1.63-11.06,2.49-16.28h0c2.21-13.15,4.58-25,6.91-35.42C54.84,473.08,70.12,433.5,82.66,401c6.08-15.73,14.25-36.74,26.45-62.59a791.44,791.44,0,0,1,73-123.58,863.33,863.33,0,0,1,210.57-64.38,495.94,495.94,0,0,1,26.78,55A877.1,877.1,0,0,1,540,197.25" transform="translate(-0.25 -126.24)"/><ellipse class="cls-1" cx="367.41" cy="451.43" rx="91.72" ry="103.68"/><path class="cls-1" d="M540,841.34a613.63,613.63,0,0,0,263.77-59.16q9.72,8.13,19.91,15.73a557.41,557.41,0,0,1-90.25,42.75c3.93,10.44,16.64,31.83,28,48.92,11.63,17.47,29.39,39.93,29.39,39.93a865.33,865.33,0,0,0,155.86-63.88,870.34,870.34,0,0,0,104.38-65c9.22-47.94,1.08-158.24,1.08-158.24-1.08-24.14-3.32-46.15-6.09-65.76-.79-5.62-1.63-11.06-2.49-16.28h0c-2.21-13.15-4.58-25-6.91-35.42-11.53-51.87-26.81-91.45-39.35-123.91-6.08-15.73-14.25-36.74-26.45-62.59a791.44,791.44,0,0,0-73-123.58,863.33,863.33,0,0,0-210.57-64.38,495.94,495.94,0,0,0-26.78,55A877.1,877.1,0,0,0,540,197.25" transform="translate(-0.25 -126.24)"/><ellipse class="cls-1" cx="712.09" cy="451.43" rx="91.72" ry="103.68"/></svg>