<svg id="Calque_1" data-name="Calque 1" xmlns="http://www.w3.org/2000/svg" viewBox="0 0 1068.34 945.89"><defs><style>.cls-1,.cls-2{fill:none;stroke:#56dcfc;}.cls-1{stroke-width:41.34px;}.cls-2{stroke-width:41.34px;}</style></defs><title>Tavern</title><path id="bN5StdyPU" class="cls-1" d="M807.54,407.55Q934,696.62,807.54,770c-126.47,73.38-456,95.76-550.87-17q-94.86-112.82,0-345.41,96.46-158.87,274.18-158.87T807.54,407.55Z" transform="translate(-5.83 -67.05)"/><path id="bN5StdyPU-2" data-name="bN5StdyPU" class="cls-2" d="M683.52,498.83c17,37.88,31.76,82.51,34.37,121.42A37,37,0,0,1,691.57,658c-122.22,36.93-260.91,27.27-311.07,4.11A38.64,38.64,0,0,1,358.69,634c-6.37-34,4.8-88.78,30.37-153.93a70.58,70.58,0,0,1,10.59-18.33c44.19-55.16,82.53-63.16,135.46-63.16,44.93,0,77.23,13.58,105.29,39.53A185.81,185.81,0,0,1,683.52,498.83Z" transform="translate(-5.83 -67.05)"/><path id="bN5StdyPU-3" data-name="bN5StdyPU" class="cls-1" d="M955.35,334.37q196.3,448.77,0,562.72C759,1011,247.41,1045.75,100.14,870.62q-147.28-175.14,0-536.25Q249.9,87.73,525.79,87.73T955.35,334.37Z" transform="translate(-5.83 -67.05)"/></svg>